<svg class="tiktok-svg-icon" width="50" height="50" viewBox="0 0 1500 1695" fill="none" xmlns="http://www.w3.org/2000/svg">
<path class="tiktok-layer1" fill-rule="evenodd" clip-rule="evenodd" d="M1111.67 611.86C1221.11 690.05 1355.19 736.06 1499.99 736.06V457.55C1472.58 457.561 1445.25 454.702 1418.44 449.02V668.25C1273.65 668.25 1139.59 622.24 1030.12 544.05V1112.4C1030.12 1396.72 799.52 1627.19 515.07 1627.19C408.94 1627.19 310.29 1595.12 228.34 1540.12C321.87 1635.7 452.3 1695 596.6 1695C881.07 1695 1111.68 1464.53 1111.68 1180.2V611.86H1111.67ZM1212.27 330.88C1156.34 269.81 1119.62 190.88 1111.67 103.62V67.7998H1034.39C1053.84 178.7 1120.19 273.45 1212.27 330.88V330.88ZM408.25 1321.95C377.004 1281 360.114 1230.9 360.19 1179.39C360.19 1049.35 465.67 943.92 595.8 943.92C620.048 943.903 644.155 947.623 667.27 954.95V670.22C640.262 666.521 613.004 664.953 585.75 665.53V887.15C562.624 879.823 538.508 876.103 514.25 876.12C384.12 876.12 278.65 981.55 278.65 1111.6C278.65 1203.55 331.37 1283.17 408.25 1321.95V1321.95Z"></path>
<path class="main-layer" fill-rule="evenodd" clip-rule="evenodd" d="M1030.12 544.05C1139.59 622.24 1273.65 668.25 1418.44 668.25V449.02C1337.62 431.82 1266.07 389.6 1212.27 330.88C1120.19 273.45 1053.84 178.7 1034.39 67.7998H831.4V1180.19C830.94 1309.87 725.64 1414.87 595.79 1414.87C519.27 1414.87 451.29 1378.42 408.24 1321.95C331.36 1283.17 278.64 1203.55 278.64 1111.6C278.64 981.55 384.11 876.12 514.24 876.12C539.17 876.12 563.2 880 585.74 887.15V665.53C306.29 671.3 81.54 899.52 81.54 1180.2C81.54 1320.31 137.51 1447.33 228.34 1540.13C310.29 1595.13 408.94 1627.2 515.07 1627.2C799.52 1627.2 1030.12 1396.72 1030.12 1112.41V544.05Z" fill="white"></path>
<path class="tiktok-layer2" fill-rule="evenodd" clip-rule="evenodd" d="M1418.44 449.02V389.74C1345.55 389.85 1274.11 369.449 1212.27 330.87C1267.01 390.768 1339.09 432.074 1418.44 449.02V449.02ZM1034.39 67.8C1032.53 57.2026 1031.11 46.5337 1030.12 35.82V0H749.84V1112.4C749.39 1242.07 644.1 1347.07 514.24 1347.07C476.11 1347.07 440.12 1338.03 408.24 1321.95C451.29 1378.42 519.27 1414.87 595.79 1414.87C725.63 1414.87 830.94 1309.87 831.4 1180.19V67.8H1034.39ZM585.75 665.53V602.42C562.33 599.218 538.718 597.618 515.08 597.63C230.6 597.63 0 828.11 0 1112.4C0 1290.64 90.63 1447.72 228.35 1540.12C137.52 1447.32 81.55 1320.3 81.55 1180.19C81.55 899.52 306.29 671.3 585.75 665.53V665.53Z"></path>
</svg>